<?xml version="1.0" encoding="UTF-8" standalone="no"?>
<!-- Created with Inkscape (http://www.inkscape.org/) -->

<svg
   width="256mm"
   height="256mm"
   viewBox="0 0 256 256"
   version="1.1"
   id="svg1"
   xml:space="preserve"
   inkscape:version="1.3 (0e150ed6c4, 2023-07-21)"
   sodipodi:docname="Launcher V.3.svg"
   inkscape:export-filename="Launcher V.3.png"
   inkscape:export-xdpi="96"
   inkscape:export-ydpi="96"
   xmlns:inkscape="http://www.inkscape.org/namespaces/inkscape"
   xmlns:sodipodi="http://sodipodi.sourceforge.net/DTD/sodipodi-0.dtd"
   xmlns:xlink="http://www.w3.org/1999/xlink"
   xmlns="http://www.w3.org/2000/svg"
   xmlns:svg="http://www.w3.org/2000/svg"><sodipodi:namedview
     id="namedview1"
     pagecolor="#ffffff"
     bordercolor="#000000"
     borderopacity="0.25"
     inkscape:showpageshadow="2"
     inkscape:pageopacity="0.0"
     inkscape:pagecheckerboard="true"
     inkscape:deskcolor="#d1d1d1"
     inkscape:document-units="mm"
     inkscape:zoom="0.615451"
     inkscape:cx="389.95793"
     inkscape:cy="231.53752"
     inkscape:window-width="1920"
     inkscape:window-height="1017"
     inkscape:window-x="-8"
     inkscape:window-y="-8"
     inkscape:window-maximized="1"
     inkscape:current-layer="layer3" /><defs
     id="defs1"><rect
       x="390.35245"
       y="500.41681"
       width="464.86807"
       height="89.555466"
       id="rect4" /><rect
       x="394.45425"
       y="475.80615"
       width="277.28293"
       height="63.012825"
       id="rect2" /></defs><g
     inkscape:groupmode="layer"
     id="layer2"
     inkscape:label="Capa 2"
     style="display:inline" /><g
     inkscape:groupmode="layer"
     id="layer3"
     inkscape:label="dISEÑO"><g
       id="g1"
       transform="matrix(1.9353086,0,0,1.8845284,-159.19128,-70.660986)"><path
         id="path1"
         style="display:inline;opacity:1;fill:#ececec;stroke:#000000;stroke-width:0.572;stroke-dasharray:none"
         d="m 148.55941,39.392944 a 54.169914,53.334023 0 0 0 -54.169823,53.334213 54.169914,53.334023 0 0 0 8.861473,29.179093 c -3.678243,3.62262 -6.402309,5.27473 -18.673794,17.54622 32.956844,43.43096 96.051774,41.88045 127.646474,0 -6.59219,-7.48303 -8.44876,-9.32356 -17.7307,-18.54512 a 54.169914,53.334023 0 0 0 8.2367,-28.180193 54.169914,53.334023 0 0 0 -54.17033,-53.334213 z" /><path
         style="display:inline;opacity:1;fill:#e81c5d;fill-opacity:1;stroke:#000000;stroke-width:0.264583"
         d="m 105.63215,124.62422 c 21.99247,26.1367 57.36377,32.90382 87.36359,-1.08525 8.80967,8.80967 8.87381,9.41644 15.55542,16.09805 -31.36834,35.79754 -83.27307,41.31452 -119.559688,0.36176 7.670051,-6.22061 8.224159,-6.95803 16.640678,-15.37456 z"
         id="path2"
         sodipodi:nodetypes="ccccc" /><text
         xml:space="preserve"
         id="text3"
         style="font-style:normal;font-variant:normal;font-weight:bold;font-stretch:condensed;font-size:16.3528px;font-family:'Agency FB';-inkscape-font-specification:'Agency FB Bold Condensed';white-space:pre;display:inline;fill:#fac08f;fill-opacity:1;stroke:#1a1a1a;stroke-width:0.257348;stroke-dasharray:none"
         transform="matrix(1.2969223,-0.08207881,0.08253654,1.1837784,-51.323248,3.4165889)"><textPath
           xlink:href="#path2"
           id="textPath4"
           style="font-style:normal;font-variant:normal;font-weight:bold;font-stretch:condensed;font-size:16.3528px;font-family:'Agency FB';-inkscape-font-specification:'Agency FB Bold Condensed';fill:#fac08f;fill-opacity:1;stroke:#1a1a1a;stroke-width:0.257348;stroke-dasharray:none">D-H-Y-M-F CORP.</textPath></text><path
         id="rect3"
         style="fill:#e81c5d;fill-opacity:1;stroke:#000000;stroke-width:0.565;stroke-dasharray:none"
         d="m 146.1487,43.021663 c -4.20864,0 -7.59695,3.388311 -7.59695,7.596953 v 2.744535 a 39.792934,39.792934 0 0 0 -10.54923,4.365625 l -1.93786,-1.937866 c -2.97596,-2.975959 -7.76757,-2.975959 -10.74353,0 l -3.06958,3.06958 c -2.97596,2.975959 -2.97596,7.767571 0,10.74353 l 1.93786,1.937866 a 39.792934,39.792934 0 0 0 -4.36562,10.549227 h -2.74454 c -4.20864,0 -7.59695,3.388311 -7.59695,7.596953 v 4.34082 c 0,4.208641 3.38831,7.596954 7.59695,7.596954 h 2.74454 a 39.792934,39.792934 0 0 0 4.36562,10.54923 l -1.93786,1.93786 c -2.97596,2.97596 -2.97596,7.76757 0,10.74353 l 3.06958,3.06958 c 2.97596,2.97596 7.76757,2.97596 10.74353,0 l 1.93786,-1.93786 a 39.792934,39.792934 0 0 0 10.54923,4.36562 v 2.74454 c 0,4.20864 3.38831,7.59695 7.59695,7.59695 h 4.34082 c 4.20864,0 7.59695,-3.38831 7.59695,-7.59695 v -2.74454 a 39.792934,39.792934 0 0 0 10.54923,-4.36562 l 1.93787,1.93786 c 2.97596,2.97596 7.76757,2.97596 10.74353,0 l 3.06958,-3.06958 c 2.97596,-2.97596 2.97596,-7.76757 0,-10.74353 l -1.93787,-1.93786 a 39.792934,39.792934 0 0 0 4.36563,-10.54923 h 2.74453 c 4.20864,0 7.59695,-3.388313 7.59695,-7.596954 v -4.34082 c 0,-4.208642 -3.38831,-7.596953 -7.59695,-7.596953 h -2.66702 a 39.792934,39.792934 0 0 0 -4.39094,-10.60142 l 1.88567,-1.885673 c 2.97596,-2.975959 2.97596,-7.767571 0,-10.74353 l -3.06958,-3.06958 c -2.97596,-2.975959 -7.76757,-2.975959 -10.74353,0 l -1.88568,1.885673 a 39.792934,39.792934 0 0 0 -10.60142,-4.390947 v -2.66702 c 0,-4.208642 -3.38831,-7.596953 -7.59695,-7.596953 z" /><path
         style="display:inline;fill:#fac08f;fill-opacity:1;stroke:#1a1a1a;stroke-width:0.249;stroke-dasharray:none"
         d="m 172.97791,85.612693 c -0.0187,2.628502 -6.17401,5.066968 -17.79562,9.081515 0.0418,-4.244871 -3.47786,-5.844035 -3.47786,-5.844035 l -3.05354,-10.858968 -2.92416,10.913128 c 0,0 -3.68255,1.929001 -3.16008,5.787153 -4.73352,0.103873 -19.039,2.152036 -18.48218,4.211251 -1.44046,7.082783 32.5725,44.896463 50.35189,-6.306619 -27.53255,35.315582 -44.18096,15.702372 -48.5314,6.793105 -0.41027,-2.4416 16.89645,-4.198786 16.89645,-4.198786 0,0 0.39281,2.778386 3.50044,3.86394 0.94173,2.073513 2.96197,6.374233 2.96197,6.374233 l 2.30452,-6.493445 c 0,0 2.06839,-0.652729 3.50484,-3.43767 10.70863,-3.580387 18.66787,-6.374545 19.17814,-9.96095 C 168.09639,62.820693 113.7094,48.9919 123.3422,96.914402 117.25781,65.443791 169.72574,63.960697 172.97791,85.612693 Z"
         id="path4"
         sodipodi:nodetypes="ccccccccccccccccc" /></g></g></svg>
