<?xml version="1.0" encoding="UTF-8" standalone="no"?>
<!-- Created with Inkscape (http://www.inkscape.org/) -->

<svg
   width="297mm"
   height="210mm"
   viewBox="0 0 297 210"
   version="1.1"
   id="svg1"
   xml:space="preserve"
   inkscape:version="1.3.2 (091e20e, 2023-11-25, custom)"
   sodipodi:docname="Prototipo lanzador.svg"
   xmlns:inkscape="http://www.inkscape.org/namespaces/inkscape"
   xmlns:sodipodi="http://sodipodi.sourceforge.net/DTD/sodipodi-0.dtd"
   xmlns:xlink="http://www.w3.org/1999/xlink"
   xmlns="http://www.w3.org/2000/svg"
   xmlns:svg="http://www.w3.org/2000/svg"><sodipodi:namedview
     id="namedview1"
     pagecolor="#ffffff"
     bordercolor="#000000"
     borderopacity="0.25"
     inkscape:showpageshadow="2"
     inkscape:pageopacity="0.0"
     inkscape:pagecheckerboard="true"
     inkscape:deskcolor="#d1d1d1"
     inkscape:document-units="mm"
     inkscape:zoom="0.615451"
     inkscape:cx="417.57995"
     inkscape:cy="446.01439"
     inkscape:window-width="1366"
     inkscape:window-height="705"
     inkscape:window-x="-8"
     inkscape:window-y="-8"
     inkscape:window-maximized="1"
     inkscape:current-layer="layer2" /><defs
     id="defs1"><rect
       x="390.35246"
       y="500.41682"
       width="464.86808"
       height="89.555467"
       id="rect4" /><rect
       x="394.45424"
       y="475.80615"
       width="277.28293"
       height="63.012824"
       id="rect2" /></defs><g
     inkscape:groupmode="layer"
     id="layer2"
     inkscape:label="Capa 2"
     style="display:inline"><path
       id="path1"
       style="display:inline;opacity:1;fill:#ececec;stroke-width:0.572;stroke:#000000;stroke-dasharray:none"
       d="m 148.55941,39.392944 a 54.169914,53.334023 0 0 0 -54.169823,53.334213 54.169914,53.334023 0 0 0 8.861473,29.179093 c -3.678243,3.62262 -6.402309,5.27473 -18.673794,17.54622 32.956844,43.43096 96.051774,41.88045 127.646474,0 -6.59219,-7.48303 -8.44876,-9.32356 -17.7307,-18.54512 a 54.169914,53.334023 0 0 0 8.2367,-28.180193 54.169914,53.334023 0 0 0 -54.17033,-53.334213 z" /><path
       style="opacity:1;fill:#e81c5d;stroke-width:0.264583;fill-opacity:1;stroke:#000000"
       d="m 105.63215,124.62422 c 21.99247,26.1367 57.36377,32.90382 87.36359,-1.08525 8.80967,8.80967 8.87381,9.41644 15.55542,16.09805 -31.36834,35.79754 -83.27307,41.31452 -119.559688,0.36176 7.670051,-6.22061 8.224159,-6.95803 16.640678,-15.37456 z"
       id="path2"
       sodipodi:nodetypes="ccccc" /><text
       xml:space="preserve"
       id="text3"
       style="font-style:normal;font-variant:normal;font-weight:bold;font-stretch:condensed;font-size:14.8979px;font-family:'Agency FB';-inkscape-font-specification:'Agency FB Bold Condensed';white-space:pre;fill:#fac08f;fill-opacity:1;stroke:#1a1a1a;stroke-width:0.25734841;stroke-dasharray:none"
       transform="matrix(1.238626,0,0,1.1866592,-35.62598,-9.3320469)"><textPath
         xlink:href="#path2"
         id="textPath4"
         style="font-style:normal;font-variant:normal;font-weight:bold;font-stretch:condensed;font-size:14.8979px;font-family:'Agency FB';-inkscape-font-specification:'Agency FB Bold Condensed';fill:#fac08f;fill-opacity:1;stroke:#1a1a1a;stroke-width:0.25734841;stroke-dasharray:none">D-H-Y-M-F CORP.</textPath></text></g><g
     inkscape:groupmode="layer"
     id="layer3"
     inkscape:label="dISEÑO"><path
       id="rect3"
       style="fill:#e81c5d;stroke-width:0.565;fill-opacity:1;stroke:#000000;stroke-dasharray:none"
       d="M 146.1487 43.021663 C 141.94006 43.021663 138.55175 46.409974 138.55175 50.618616 L 138.55175 53.363151 A 39.792934 39.792934 0 0 0 128.00252 57.728776 L 126.06466 55.79091 C 123.0887 52.814951 118.29709 52.814951 115.32113 55.79091 L 112.25155 58.86049 C 109.27559 61.836449 109.27559 66.628061 112.25155 69.60402 L 114.18941 71.541886 A 39.792934 39.792934 0 0 0 109.82379 82.091113 L 107.07925 82.091113 C 102.87061 82.091113 99.4823 85.479424 99.4823 89.688066 L 99.4823 94.028886 C 99.4823 98.237527 102.87061 101.62584 107.07925 101.62584 L 109.82379 101.62584 A 39.792934 39.792934 0 0 0 114.18941 112.17507 L 112.25155 114.11293 C 109.27559 117.08889 109.27559 121.8805 112.25155 124.85646 L 115.32113 127.92604 C 118.29709 130.902 123.0887 130.902 126.06466 127.92604 L 128.00252 125.98818 A 39.792934 39.792934 0 0 0 138.55175 130.3538 L 138.55175 133.09834 C 138.55175 137.30698 141.94006 140.69529 146.1487 140.69529 L 150.48952 140.69529 C 154.69816 140.69529 158.08647 137.30698 158.08647 133.09834 L 158.08647 130.3538 A 39.792934 39.792934 0 0 0 168.6357 125.98818 L 170.57357 127.92604 C 173.54953 130.902 178.34114 130.902 181.3171 127.92604 L 184.38668 124.85646 C 187.36264 121.8805 187.36264 117.08889 184.38668 114.11293 L 182.44881 112.17507 A 39.792934 39.792934 0 0 0 186.81444 101.62584 L 189.55897 101.62584 C 193.76761 101.62584 197.15592 98.237527 197.15592 94.028886 L 197.15592 89.688066 C 197.15592 85.479424 193.76761 82.091113 189.55897 82.091113 L 186.89195 82.091113 A 39.792934 39.792934 0 0 0 182.50101 71.489693 L 184.38668 69.60402 C 187.36264 66.628061 187.36264 61.836449 184.38668 58.86049 L 181.3171 55.79091 C 178.34114 52.814951 173.54953 52.814951 170.57357 55.79091 L 168.68789 57.676583 A 39.792934 39.792934 0 0 0 158.08647 53.285636 L 158.08647 50.618616 C 158.08647 46.409974 154.69816 43.021663 150.48952 43.021663 L 146.1487 43.021663 z " /><path
       style="display:inline;fill:#fac08f;fill-opacity:1;stroke:#1a1a1a;stroke-width:0.249;stroke-dasharray:none"
       d="m 172.97791,85.612693 c -0.0187,2.628502 -6.17401,5.066968 -17.79562,9.081515 0.0418,-4.244871 -3.47786,-5.844035 -3.47786,-5.844035 l -3.05354,-10.858968 -2.92416,10.913128 c 0,0 -3.68255,1.929001 -3.16008,5.787153 -4.73352,0.103873 -19.039,2.152036 -18.48218,4.211251 -1.44046,7.082783 32.5725,44.896463 50.35189,-6.306619 -27.53255,35.315582 -44.18096,15.702372 -48.5314,6.793105 -0.41027,-2.4416 16.89645,-4.198786 16.89645,-4.198786 0,0 0.39281,2.778386 3.50044,3.86394 0.94173,2.073513 2.96197,6.374233 2.96197,6.374233 l 2.30452,-6.493445 c 0,0 2.06839,-0.652729 3.50484,-3.43767 10.70863,-3.580387 18.66787,-6.374545 19.17814,-9.96095 C 168.09639,62.820693 113.7094,48.9919 123.3422,96.914402 117.25781,65.443791 169.72574,63.960697 172.97791,85.612693 Z"
       id="path4"
       sodipodi:nodetypes="ccccccccccccccccc" /></g></svg>
